# xmcd
#
# Track frame offsets:
#	182
#	11350
#	24760
#	35957
#	53005
#	65145
#	79232
#	91322
#	105627
#	120745
#	136827
#	149275
#
# Disc length: 2159 seconds
# Revision: 2
# Processed by: cddbd v1.5.2PL0 Copyright (c) Steve Scherf et al.
# Submitted via: dBpowerAMP V12.0
#
DISCID=9c086d0c
DTITLE=Cindy Church - Love on the Range
DYEAR=1995
DGENRE=Country
TTITLE0=Rockabilly Heart
TTITLE1=Road to Home
TTITLE2=Old Fashioned Love
TTITLE3=My Wishing Room
TTITLE4=Walking the Dog
TTITLE5=Cowgirl's Lullaby
TTITLE6=Love on the Range
TTITLE7=This October Day
TTITLE8=Tonight He's Mine
TTITLE9=Maybe We Should Stay Strangers
TTITLE10=I Thought We Were Falling in Love
TTITLE11=Ride Cowboy Ride
EXTD=
EXTT0=
EXTT1=
EXTT2=
EXTT3=
EXTT4=
EXTT5=
EXTT6=
EXTT7=
EXTT8=
EXTT9=
EXTT10=
EXTT11=
PLAYORDER=
